<svg width="23" height="24" viewBox="0 0 23 24" fill="none" xmlns="http://www.w3.org/2000/svg">
<circle cx="11.5" cy="12.5" r="11.5" fill="white"/>
<path d="M16.568 12.6H18.272V21H16.712V19.584C16.072 20.096 15.32 20.488 14.456 20.76C13.608 21.016 12.696 21.144 11.72 21.144C10.216 21.144 8.816 20.808 7.52 20.136C6.24 19.464 5.208 18.488 4.424 17.208C3.64 15.928 3.248 14.408 3.248 12.648C3.248 11.016 3.632 9.552 4.4 8.256C5.168 6.944 6.224 5.92 7.568 5.184C8.912 4.432 10.432 4.056 12.128 4.056C13.408 4.056 14.584 4.264 15.656 4.68C16.728 5.08 17.632 5.68 18.368 6.48L17.264 7.608C15.936 6.296 14.248 5.64 12.2 5.64C10.84 5.64 9.608 5.944 8.504 6.552C7.416 7.144 6.56 7.976 5.936 9.048C5.312 10.12 5 11.32 5 12.648C5 14.072 5.312 15.312 5.936 16.368C6.576 17.408 7.416 18.208 8.456 18.768C9.512 19.312 10.64 19.584 11.84 19.584C12.72 19.584 13.568 19.44 14.384 19.152C15.216 18.848 15.944 18.392 16.568 17.784V12.6Z" fill="black"/>
</svg>
