<svg xmlns="http://www.w3.org/2000/svg" width="107" height="96" fill="none"><path fill="#818181" fill-opacity=".05" fill-rule="evenodd" d="M53.5 0a4 4 0 0 1 4 4v88a4 4 0 0 1-8 0V4a4 4 0 0 1 4-4ZM41.125 11.2a4 4 0 0 1 4 4v65.143a4 4 0 0 1-8 0V15.2a4 4 0 0 1 4-4Zm24.75 12.343a4 4 0 0 1 4 4v41.143a4 4 0 1 1-8 0V27.543a4 4 0 0 1 4-4ZM28.75 26.514a4 4 0 0 1 4 4v35.429a4 4 0 0 1-8 0V30.514a4 4 0 0 1 4-4Zm61.875 3.657a4 4 0 0 1 4 4V61.6a4 4 0 0 1-8 0V34.171a4 4 0 0 1 4-4ZM4 31.314a4 4 0 0 1 4 4v25.143a4 4 0 1 1-8 0V35.314a4 4 0 0 1 4-4Zm12.375 2.515a4 4 0 0 1 4 4V58.4a4 4 0 0 1-8 0V37.829a4 4 0 0 1 4-4Zm61.875.914a4 4 0 0 1 4 4v18.286a4 4 0 0 1-8 0V38.743a4 4 0 0 1 4-4ZM103 36.57a4 4 0 0 1 4 4V55.43a4 4 0 0 1-8 0V40.57a4 4 0 0 1 4-4Z" clip-rule="evenodd"/></svg>