<svg xmlns="http://www.w3.org/2000/svg" width="20" height="20" fill="none"><path fill="url(#a)" fill-rule="evenodd" d="M10.625 2.5a.625.625 0 0 1 .625.625v13.75a.624.624 0 1 1-1.25 0V3.125a.625.625 0 0 1 .625-.625ZM8.125 5a.625.625 0 0 1 .625.625v8.75a.625.625 0 1 1-1.25 0v-8.75A.625.625 0 0 1 8.125 5Zm5 0a.625.625 0 0 1 .625.625v8.75a.624.624 0 1 1-1.25 0v-8.75A.625.625 0 0 1 13.125 5Zm-7.5 1.875a.625.625 0 0 1 .625.625v5a.625.625 0 1 1-1.25 0v-5a.625.625 0 0 1 .625-.625Zm10 0a.625.625 0 0 1 .625.625v5a.624.624 0 1 1-1.25 0v-5a.625.625 0 0 1 .625-.625Zm-12.5 1.25a.625.625 0 0 1 .625.625v2.5a.625.625 0 1 1-1.25 0v-2.5a.625.625 0 0 1 .625-.625Zm15 0a.625.625 0 0 1 .625.625v2.5a.624.624 0 1 1-1.25 0v-2.5a.625.625 0 0 1 .625-.625Z" clip-rule="evenodd"/><defs><linearGradient id="a" x1="9.801" x2="10.28" y1="2.5" y2="15.877" gradientUnits="userSpaceOnUse"><stop stop-color="#ED5233"/><stop offset="1" stop-color="#BE3014"/></linearGradient></defs></svg>