<svg xmlns="http://www.w3.org/2000/svg" width="20" height="20" fill="none"><path fill="url(#a)" d="M18.265 2.338c.842.016 1.603.735 1.62 1.62.006.94.004 1.882 0 2.823-.01.65-.432 1.218-1.023 1.507-1.165.587-1.375 2.638-.08 3.38.186.107.385.193.546.334.345.304.55.758.557 1.217.004.934 0 1.87 0 2.804-.006.854-.725 1.622-1.62 1.639-5.503.035-11.007 0-16.511 0-.852-.005-1.622-.735-1.639-1.62-.006-.94-.004-1.882 0-2.823.009-.65.433-1.218 1.023-1.507 1.165-.587 1.374-2.638.08-3.38-.182-.105-.377-.188-.535-.324A1.666 1.666 0 0 1 .115 6.78c-.004-.934 0-1.87 0-2.804.005-.852.735-1.622 1.62-1.639 5.51-.035 11.02-.035 16.53 0Zm-16.508.938a.721.721 0 0 0-.705.693c-.005.937-.012 1.873 0 2.81a.733.733 0 0 0 .437.638c.088.041.093.045.131.065 1.484.794 1.914 3.132.705 4.48-.25.279-.578.479-.904.654a.72.72 0 0 0-.369.611c-.004.935-.005 1.87 0 2.804a.723.723 0 0 0 .694.694c5.503.034 11.005.034 16.507 0a.723.723 0 0 0 .694-.694c.006-.936.013-1.873 0-2.81a.733.733 0 0 0-.436-.638c-.089-.042-.093-.045-.131-.065-1.477-.79-1.92-3.102-.721-4.461.246-.28.549-.494.891-.658a.719.719 0 0 0 .397-.626c.005-.935.006-1.87 0-2.804a.723.723 0 0 0-.694-.693c-5.498-.035-10.997 0-16.496 0Z"/><path fill="#000" fill-opacity=".286" fill-rule="evenodd" d="m10 5.192 1.148 3.535h3.716l-3.006 2.184 1.148 3.534L10 12.261l-3.006 2.184 1.148-3.534-3.006-2.184h3.716L10 5.192Z" clip-rule="evenodd"/><path fill="url(#b)" d="M10.042 4.726a.499.499 0 0 1 .404.322l1.043 3.21h3.375s.327.041.431.284a.49.49 0 0 1-.155.564l-2.73 1.984 1.042 3.21s.053.302-.107.469a.49.49 0 0 1-.614.055L10 12.84l-2.73 1.984s-.202.128-.401.073c-.242-.067-.39-.347-.321-.597l1.043-3.21L4.86 9.106s-.222-.201-.189-.442a.481.481 0 0 1 .38-.399c.038-.006.047-.006.085-.007H8.51l1.043-3.21s.183-.336.488-.322ZM9.297 8.87a.497.497 0 0 1-.445.324H6.578l1.84 1.337s.244.253.17.524l-.703 2.162 1.84-1.336s.316-.155.55 0l1.84 1.336-.703-2.162s-.049-.35.17-.524l1.84-1.337h-2.274s-.347-.061-.445-.324L10 6.71l-.703 2.162Z"/><defs><linearGradient id="a" x1="10" x2="10" y1="2.312" y2="17.677" gradientUnits="userSpaceOnUse"><stop stop-color="#ED5233"/><stop offset="1" stop-color="#BE3014"/></linearGradient><linearGradient id="b" x1="9.999" x2="9.999" y1="4.725" y2="14.911" gradientUnits="userSpaceOnUse"><stop stop-color="#ED5233"/><stop offset="1" stop-color="#BE3014"/></linearGradient></defs></svg>