<svg xmlns="http://www.w3.org/2000/svg" width="20" height="20" fill="none"><path fill="url(#a)" d="m11.154 11.41.999-.379 1-.487 3.43-2.992 2.82-2.264.597-1.27-1.79-1.958h-1.386l-2.782 2.906L11.86 6.8l-.006-.006-.044.047-1.299 1.423-.368.7-.47.897-2.962 2.785a2.33 2.33 0 0 0-.024-.441c-.144-.95-.847-1.78-2.09-2.467-.903-.5-1.661-.743-2.316-.743-.501 0-.933.144-1.283.428-.86.695-.863 2.003-.662 2.664.262.863.782 1.184 1.175 1.3.15.045.31.068.475.068.87 0 1.665-.624 1.816-.75a.758.758 0 0 0 .097-1.073.76.76 0 0 0-1.07-.099c-.198.161-.6.4-.837.4a.152.152 0 0 1-.047-.006c-.014-.004-.085-.068-.15-.282-.1-.327-.044-.87.162-1.037.07-.057.18-.086.326-.086.266 0 .755.096 1.577.55.795.44 1.252.91 1.32 1.36.07.47-.282.943-.521 1.213H0v4.294h19.855v-3.266H7.583l3.57-3.264Zm3.306-5.999 2.624-2.741h.857l1.334 1.459-.363.772-2.734 2.194-2.506 2.441-1.731-2.005 2.519-2.12Zm-2.607 2.291 1.632 1.81-1.113.87-1.53-1.573 1.01-1.107Zm7.393 7.582v2.046H.61v-3.075h4.315a1.44 1.44 0 0 0 .028-.028c.238-.248.964-1.004.832-1.885-.1-.654-.647-1.26-1.628-1.803-1.198-.662-2.09-.802-2.582-.404-.479.388-.5 1.236-.362 1.688.115.38.304.612.559.689.606.182 1.438-.501 1.446-.508a.152.152 0 0 1 .196.234c-.04.032-.964.793-1.729.566-.36-.108-.617-.408-.764-.893-.166-.547-.132-1.532.462-2.013.604-.489 1.587-.363 2.921.375 1.069.59 1.668 1.272 1.782 2.024.13.858-.408 1.582-.743 1.958h.55l4.274-4.019.617-1.175 1.344 1.328-1.3.492-4.815 4.403h13.233Z"/><defs><linearGradient id="a" x1="8.986" x2="9.422" y1="2.06" y2="16.227" gradientUnits="userSpaceOnUse"><stop stop-color="#ED5233"/><stop offset="1" stop-color="#BE3014"/></linearGradient></defs></svg>