<svg xmlns="http://www.w3.org/2000/svg" width="32" height="32" fill="none"><path fill="url(#a)" d="M8 29.333c-1.111 0-2.056-.389-2.833-1.166C4.389 27.389 4 26.444 4 25.333v-4h4V2.667l2 2 2-2 2 2 2-2 2 2 2-2 2 2 2-2 2 2 2-2v22.666c0 1.111-.389 2.056-1.167 2.834-.777.777-1.722 1.166-2.833 1.166H8Zm16-2.666c.378 0 .694-.128.95-.384a1.29 1.29 0 0 0 .383-.95V6.667H10.667v14.666h12v4c0 .378.127.695.383.95.256.256.572.384.95.384ZM12 12V9.333h8V12h-8Zm0 4v-2.667h8V16h-8Zm10.667-4a1.29 1.29 0 0 1-.95-.383 1.29 1.29 0 0 1-.384-.95c0-.378.128-.695.384-.95a1.29 1.29 0 0 1 .95-.384c.377 0 .694.128.95.384.255.255.383.572.383.95 0 .377-.128.694-.383.95a1.29 1.29 0 0 1-.95.383Zm0 4a1.29 1.29 0 0 1-.95-.383 1.29 1.29 0 0 1-.384-.95c0-.378.128-.695.384-.95a1.29 1.29 0 0 1 .95-.384c.377 0 .694.128.95.384.255.255.383.572.383.95 0 .377-.128.694-.383.95a1.29 1.29 0 0 1-.95.383ZM8 26.667h12V24H6.667v1.333c0 .378.127.695.383.95.256.256.572.384.95.384Z"/><defs><linearGradient id="a" x1="14.783" x2="15.807" y1="2.667" y2="26.434" gradientUnits="userSpaceOnUse"><stop stop-color="#ED5233"/><stop offset="1" stop-color="#BE3014"/></linearGradient></defs></svg>