<svg xmlns="http://www.w3.org/2000/svg" width="32" height="32" fill="none"><g clip-path="url(#a)"><path fill="url(#b)" d="M0 16a16 16 0 1 1 32 0 16 16 0 0 1-32 0ZM15 2.154c-1.34.408-2.67 1.64-3.774 3.71A16.002 16.002 0 0 0 10.29 8H15V2.154ZM8.18 8a18.6 18.6 0 0 1 1.28-3.078c.348-.653.747-1.277 1.194-1.866A14.06 14.06 0 0 0 4.51 8h3.67Zm-1.164 7c.06-1.754.276-3.436.624-5H3.348a14 14 0 0 0-1.312 5h4.98Zm2.678-5a25 25 0 0 0-.676 5H15v-5H9.694ZM17 10v5h5.98a25.001 25.001 0 0 0-.674-5H17Zm-7.98 7a25 25 0 0 0 .674 5H15v-5H9.02ZM17 17v5h5.306c.374-1.53.612-3.216.676-5H17Zm-6.71 7c.277.773.59 1.485.936 2.136 1.104 2.07 2.436 3.3 3.774 3.71V24h-4.71Zm.364 4.944a13.995 13.995 0 0 1-1.194-1.866A18.601 18.601 0 0 1 8.18 24H4.51a14 14 0 0 0 6.144 4.944ZM7.64 22a27.4 27.4 0 0 1-.624-5h-4.98c.124 1.78.582 3.466 1.312 5H7.64Zm13.706 6.944A14 14 0 0 0 27.49 24h-3.67a18.605 18.605 0 0 1-1.28 3.078 13.996 13.996 0 0 1-1.194 1.866ZM17 24v5.846c1.34-.408 2.67-1.64 3.774-3.71.347-.65.659-1.361.936-2.136H17Zm7.36-2h4.292a13.853 13.853 0 0 0 1.312-5h-4.98a27.404 27.404 0 0 1-.624 5Zm5.604-7a14 14 0 0 0-1.312-5H24.36c.348 1.564.564 3.246.624 5h4.98ZM22.54 4.922c.494.928.924 1.96 1.28 3.078h3.67a14 14 0 0 0-6.144-4.944c.436.568.836 1.196 1.194 1.866ZM21.71 8a16.002 16.002 0 0 0-.936-2.136c-1.104-2.07-2.434-3.3-3.774-3.71V8h4.71Z"/></g><defs><linearGradient id="b" x1="14.378" x2="15.483" y1="0" y2="28.531" gradientUnits="userSpaceOnUse"><stop stop-color="#ED5233"/><stop offset="1" stop-color="#BE3014"/></linearGradient><clipPath id="a"><path fill="#fff" d="M0 0h32v32H0z"/></clipPath></defs></svg>