<svg xmlns="http://www.w3.org/2000/svg" width="32" height="32" fill="none"><path fill="url(#a)" fill-rule="evenodd" d="M14.42 1.6C15.38.59 16 0 16 0c.219.725.466 1.417.742 2.076 1.624 3.892 4.146 6.7 6.394 9.2C25.756 14.192 28 16.69 28 20a12 12 0 0 1-24 0c0-6.664 7.16-14.966 10.42-18.4Zm.826 2.042a62.002 62.002 0 0 0-3.658 4.338c-1.452 1.9-2.872 4.016-3.92 6.14C6.608 16.266 6 18.276 6 20a10 10 0 0 0 20 0c0-2.402-1.592-4.314-4.362-7.4l-.06-.064C19.5 10.22 17 7.442 15.246 3.642Z" clip-rule="evenodd"/><path fill="url(#b)" fill-rule="evenodd" d="M9.106 15.552c1.64-3.282 3.434-5.506 4.186-6.26l1.416 1.416c-.58.58-2.256 2.622-3.814 5.74l-1.788-.896Z" clip-rule="evenodd"/><defs><linearGradient id="a" x1="14.783" x2="16.256" y1="0" y2="28.498" gradientUnits="userSpaceOnUse"><stop stop-color="#ED5233"/><stop offset="1" stop-color="#BE3014"/></linearGradient><linearGradient id="b" x1="11.623" x2="11.939" y1="9.292" y2="15.666" gradientUnits="userSpaceOnUse"><stop stop-color="#ED5233"/><stop offset="1" stop-color="#BE3014"/></linearGradient></defs></svg>