<svg width="13" height="9" viewBox="0 0 13 9" fill="none" xmlns="http://www.w3.org/2000/svg">
<path d="M10.9792 0.286938C11.2039 0.10086 11.5028 -0.00201204 11.813 2.98247e-05C12.1232 0.00207169 12.4203 0.108868 12.6417 0.297882C12.8631 0.486897 12.9914 0.743346 12.9996 1.01312C13.0078 1.28289 12.8952 1.54488 12.6856 1.74381L6.32264 8.66741C6.21323 8.76994 6.08117 8.85223 5.93437 8.90934C5.78757 8.96646 5.62904 8.99723 5.46826 8.99982C5.30748 9.00241 5.14775 8.97677 4.99862 8.92442C4.8495 8.87207 4.71403 8.7941 4.60033 8.69516L0.380675 5.02385C0.263165 4.92858 0.168913 4.81369 0.103542 4.68605C0.0381707 4.5584 0.00301963 4.4206 0.000186137 4.28087C-0.00264735 4.14115 0.0268948 4.00236 0.0870496 3.87278C0.147204 3.74321 0.23674 3.6255 0.350315 3.52669C0.463889 3.42787 0.599176 3.34997 0.748105 3.29763C0.897034 3.2453 1.05655 3.21959 1.21715 3.22206C1.37774 3.22452 1.53612 3.25511 1.68283 3.31198C1.82955 3.36886 1.96159 3.45086 2.07109 3.5531L5.41045 6.45713L10.9489 0.317463L10.9792 0.286938Z" fill="#FF401A"/>
</svg>
