<svg xmlns="http://www.w3.org/2000/svg" width="20" height="20" fill="none"><path fill="url(#a)" d="M5 9.773a.455.455 0 1 0 0-.91.455.455 0 0 0 0 .91Z"/><path fill="url(#b)" d="M2.727 14.318a.455.455 0 1 0 0-.909.455.455 0 0 0 0 .91Z"/><path fill="url(#c)" d="M17.273 11.136h-.227c.5-.545.772-1.318.681-2.09-.136-1.364-1.363-2.455-2.818-2.455h-2.136c-.455 0-.864-.227-1.091-.59l-1.455-2.046c-.272-.319-.727-.546-1.136-.546h-.636c-.637 0-1.182.546-1.182 1.182 0 .227.045.41.182.59l.863 1.41H5a2.735 2.735 0 0 0-2.727 2.727c0 .728.272 1.364.727 1.818h-.273A2.735 2.735 0 0 0 0 13.864c0 1.5 1.227 2.727 2.727 2.727h14.546c1.5 0 2.727-1.227 2.727-2.727 0-1.5-1.227-2.728-2.727-2.728ZM2.727 15.682c-1 0-1.818-.818-1.818-1.818s.818-1.819 1.818-1.819 1.818.819 1.818 1.819-.818 1.818-1.818 1.818Zm2 0c.091-.091.182-.182.228-.318.136.136.181.227.272.318h-.5ZM5 12.364c-.09-.137-.182-.228-.273-.319h.546c-.091.091-.182.182-.273.319Zm2.273 3.318c-1 0-1.818-.818-1.818-1.818s.818-1.819 1.818-1.819 1.818.819 1.818 1.819-.818 1.818-1.818 1.818Zm10 0H9.318c.227-.273.41-.591.546-.91h3.318c.272 0 .454-.181.454-.454 0-.272-.181-.454-.454-.454H10c0-1.5-1.227-2.728-2.727-2.728H7c.455-.5.727-1.136.727-1.818h1.364c.273 0 .454-.182.454-.454 0-.273-.181-.455-.454-.455H7.227a.413.413 0 0 0-.363.182c-.091.136-.137.227-.091.364.045.136.045.227.045.363 0 1-.818 1.818-1.818 1.818s-1.818-.818-1.818-1.818S4 7.5 5 7.5h4.09c.183 0 .32-.09.41-.227a.413.413 0 0 0 0-.455l-1.273-2.09c-.045-.046-.045-.092-.045-.137 0-.136.136-.273.273-.273h.636c.136 0 .273.091.364.182l1.454 2.046c.41.59 1.136.954 1.864.954h2.136c1 0 1.818.727 1.91 1.636v.182h-3.183c-.272 0-.454.182-.454.455s.182.454.454.454h2.955c-.046.091-.137.227-.227.318-.364.364-.819.591-1.364.591h-4.546c-.272 0-.454.182-.454.455s.182.454.454.454h6.819c.454 0 .863.182 1.181.455h-3.909c-.272 0-.454.182-.454.454 0 .273.182.455.455.455h4.5c.045.136.045.318.045.454 0 1-.818 1.819-1.818 1.819Z"/><path fill="url(#d)" d="M15.409 14.136c0-.045-.045-.09-.09-.136-.046-.046-.092-.09-.137-.09-.182-.092-.364-.046-.5.09-.046.046-.091.09-.091.136 0 .046-.046.091-.046.182s0 .137.046.182c.045.046.045.09.09.136.092.091.183.137.319.137a.413.413 0 0 0 .318-.137c.046-.045.091-.09.091-.136.045-.045.045-.136.045-.182 0-.045 0-.136-.045-.182Z"/><path fill="url(#e)" d="M11.318 8.682c-.045-.046-.045-.091-.09-.137-.137-.136-.319-.181-.5-.09-.046 0-.092.045-.137.09-.045.046-.09.091-.09.137 0 .045-.046.09-.046.182 0 .09 0 .136.045.181 0 .046.046.091.091.137.09.09.182.136.318.136.046 0 .136 0 .182-.045.046-.046.09-.046.136-.091a.413.413 0 0 0 .137-.318c0-.046 0-.137-.046-.182Z"/><defs><linearGradient id="a" x1="4.954" x2="4.985" y1="8.864" y2="9.674" gradientUnits="userSpaceOnUse"><stop stop-color="#ED5233"/><stop offset="1" stop-color="#BE3014"/></linearGradient><linearGradient id="b" x1="2.681" x2="2.713" y1="13.409" y2="14.22" gradientUnits="userSpaceOnUse"><stop stop-color="#ED5233"/><stop offset="1" stop-color="#BE3014"/></linearGradient><linearGradient id="c" x1="8.986" x2="9.287" y1="3.409" y2="15.172" gradientUnits="userSpaceOnUse"><stop stop-color="#ED5233"/><stop offset="1" stop-color="#BE3014"/></linearGradient><linearGradient id="d" x1="14.954" x2="14.985" y1="13.862" y2="14.674" gradientUnits="userSpaceOnUse"><stop stop-color="#ED5233"/><stop offset="1" stop-color="#BE3014"/></linearGradient><linearGradient id="e" x1="10.863" x2="10.895" y1="8.407" y2="9.219" gradientUnits="userSpaceOnUse"><stop stop-color="#ED5233"/><stop offset="1" stop-color="#BE3014"/></linearGradient></defs></svg>