<svg xmlns="http://www.w3.org/2000/svg" width="20" height="20" fill="none"><g clip-path="url(#a)"><path fill="url(#b)" d="M7.1 5.262c-.413-.533-.097-1.13.112-1.525l.014-.028c.278-.526.687-1.258.97-1.762l.138-.255C8.812.8 9.084.347 9.339.188 9.534.065 9.763 0 10 0c.237 0 .466.065.662.188.253.159.526.612 1.005 1.505l.137.254c.284.504.692 1.236.97 1.763l.015.027c.209.395.524.992.11 1.525-.207.267-.556.426-.934.426h-.238a.416.416 0 0 1-.828-.047v-.369c0-.23.186-.415.415-.415h.65c.137 0 .239-.053.279-.105.078-.101-.029-.323-.19-.626l-.014-.028a87.365 87.365 0 0 0-.96-1.744 17.665 17.665 0 0 1-.145-.268c-.14-.262-.564-1.054-.724-1.2A.414.414 0 0 0 10 .831a.414.414 0 0 0-.21.055c-.159.146-.583.937-.724 1.199l-.145.269c-.281.5-.686 1.225-.96 1.743l-.015.028c-.16.303-.267.526-.189.627.04.052.142.105.278.105h.65c.23 0 .416.186.416.415v.369a.416.416 0 0 1-.828.047h-.238c-.378 0-.727-.16-.934-.426Zm-1.46 5.637h-.368a.416.416 0 0 0-.415.415v.65c0 .137-.053.238-.105.279-.101.078-.323-.029-.626-.19l-.028-.014a87.394 87.394 0 0 1-1.744-.96l-.27-.145c-.261-.14-1.052-.565-1.198-.724A.415.415 0 0 1 .83 10c0-.077.019-.149.055-.21.146-.16.938-.584 1.2-.724l.268-.145c.5-.281 1.224-.686 1.744-.96l.028-.015c.303-.16.525-.267.626-.189.052.04.105.142.105.278v.65c0 .23.186.416.415.416h.369a.416.416 0 0 0 .047-.828v-.238c0-.378-.16-.727-.426-.934-.533-.414-1.13-.099-1.525.11l-.028.015c-.528.279-1.259.687-1.762.97l-.254.137C.8 8.812.347 9.084.188 9.338A1.241 1.241 0 0 0 0 10c0 .237.065.466.188.661.159.254.612.527 1.504 1.005l.255.138c.502.282 1.23.69 1.762.97l.028.014c.254.135.592.314.943.314a.924.924 0 0 0 .582-.203c.267-.207.426-.556.426-.934v-.238a.416.416 0 0 0-.047-.828Zm6.325 3.413h-.238a.416.416 0 0 0-.828.047v.369c0 .23.186.415.415.415h.65c.137 0 .239.053.279.105.078.101-.029.323-.19.627l-.014.028a87.857 87.857 0 0 1-.96 1.744c-.037.066-.087.159-.145.267-.14.262-.565 1.054-.724 1.2a.437.437 0 0 1-.42 0c-.159-.146-.583-.937-.724-1.199-.058-.109-.108-.202-.145-.268-.281-.5-.686-1.226-.96-1.745l-.015-.027c-.16-.303-.267-.526-.189-.627.04-.052.142-.105.278-.105h.65c.23 0 .416-.186.416-.415v-.369a.416.416 0 0 0-.828-.047h-.238c-.378 0-.727.16-.934.426-.414.533-.098 1.13.11 1.525l.015.027c.278.528.687 1.259.97 1.763l.138.255c.478.892.75 1.345 1.005 1.504.195.123.424.188.661.188.237 0 .466-.065.661-.188.255-.159.527-.612 1.006-1.505l.137-.254c.283-.504.692-1.236.97-1.762l.015-.028c.209-.395.524-.992.11-1.525-.207-.267-.556-.426-.934-.426Zm7.847-4.973c-.159-.255-.612-.527-1.505-1.006a16.234 16.234 0 0 1-.254-.137 88.413 88.413 0 0 0-1.762-.97l-.028-.015c-.395-.209-.992-.524-1.525-.11-.267.207-.426.556-.426.934v.238a.416.416 0 0 0 .047.828h.369c.23 0 .415-.186.415-.415v-.65c0-.137.053-.238.105-.279.1-.078.323.029.626.189l.028.015c.52.274 1.244.679 1.745.96.066.037.158.087.267.145.262.14 1.054.565 1.2.724a.414.414 0 0 1 .055.21.414.414 0 0 1-.055.21c-.146.16-.937.583-1.199.724-.109.058-.202.108-.268.145-.499.28-1.222.684-1.744.96l-.029.015c-.303.16-.525.267-.626.188-.052-.04-.105-.141-.105-.277v-.65a.416.416 0 0 0-.415-.416h-.369a.416.416 0 0 0-.047.828v.238c0 .378.16.728.426.934.19.148.388.203.582.203.351 0 .689-.179.943-.313l.028-.015c.53-.28 1.26-.688 1.762-.97l.255-.138c.892-.478 1.345-.75 1.504-1.005.123-.195.188-.424.188-.661a1.24 1.24 0 0 0-.188-.661Zm-6.088 1.077h-.355a3.401 3.401 0 0 1-2.953 2.953v.355a.416.416 0 0 1-.832 0v-.355a3.401 3.401 0 0 1-2.953-2.953h-.355a.416.416 0 0 1 0-.832h.355a3.401 3.401 0 0 1 2.953-2.953v-.355a.416.416 0 1 1 .832 0v.355a3.401 3.401 0 0 1 2.953 2.953h.355a.416.416 0 0 1 0 .832ZM11.819 10c0-.23.186-.416.415-.416h.296a2.57 2.57 0 0 0-2.114-2.114v.296a.416.416 0 0 1-.832 0V7.47A2.57 2.57 0 0 0 7.47 9.584h.296a.416.416 0 1 1 0 .832H7.47a2.57 2.57 0 0 0 2.114 2.114v-.296a.416.416 0 0 1 .832 0v.296a2.57 2.57 0 0 0 2.114-2.114h-.296A.416.416 0 0 1 11.82 10Zm-1.77-.416h-.098a.416.416 0 1 0 0 .832h.098a.416.416 0 0 0 0-.832Z"/></g><defs><linearGradient id="b" x1="10" x2="10" y1="0" y2="20" gradientUnits="userSpaceOnUse"><stop stop-color="#ED5233"/><stop offset="1" stop-color="#BE3014"/></linearGradient><clipPath id="a"><path fill="#fff" d="M0 0h20v20H0z"/></clipPath></defs></svg>