<svg xmlns="http://www.w3.org/2000/svg" width="32" height="32" fill="none"><g clip-path="url(#a)"><path fill="url(#b)" d="M22.502.136a1 1 0 0 1 .454 1.16L19.354 13H26a1.001 1.001 0 0 1 .728 1.686l-16 17a1 1 0 0 1-1.684-.98L12.646 19H6a1 1 0 0 1-.728-1.686l16-17a1 1 0 0 1 1.23-.18v.002ZM8.314 17H14a1 1 0 0 1 .956 1.294L12.22 27.18 23.684 15H18a.998.998 0 0 1-.956-1.294L19.78 4.82 8.314 17Z"/></g><defs><linearGradient id="b" x1="14.885" x2="16.491" y1="-.001" y2="28.485" gradientUnits="userSpaceOnUse"><stop stop-color="#ED5233"/><stop offset="1" stop-color="#BE3014"/></linearGradient><clipPath id="a"><path fill="#fff" d="M0 0h32v32H0z"/></clipPath></defs></svg>