<svg xmlns="http://www.w3.org/2000/svg" width="32" height="32" fill="none"><path fill="url(#a)" d="M10.676 3.18a122.006 122.006 0 0 0-5.674 1.712.96.96 0 0 0-.656.78c-1.108 8.314 1.452 14.38 4.506 18.376a21.4 21.4 0 0 0 4.574 4.466c.692.488 1.304.84 1.786 1.066.24.113.435.192.586.236.066.02.134.037.202.05.067-.013.134-.03.2-.05.152-.045.348-.124.588-.236.48-.226 1.094-.58 1.786-1.066a21.4 21.4 0 0 0 4.574-4.466c3.054-3.994 5.614-10.062 4.506-18.376a.96.96 0 0 0-.656-.78c-1.302-.426-3.5-1.12-5.674-1.71-2.22-.602-4.262-1.048-5.324-1.048-1.06 0-3.104.444-5.324 1.046Zm-.532-2.06C12.314.53 14.62 0 16 0s3.686.53 5.856 1.12c2.22.6 4.458 1.31 5.774 1.74a3.08 3.08 0 0 1 2.088 2.524c1.192 8.954-1.574 15.59-4.93 19.98a23.6 23.6 0 0 1-5.034 4.906 14 14 0 0 1-2.096 1.25c-.56.264-1.162.48-1.658.48s-1.096-.216-1.658-.48a14.005 14.005 0 0 1-2.096-1.25 23.6 23.6 0 0 1-5.034-4.906c-3.356-4.39-6.122-11.026-4.93-19.98A3.08 3.08 0 0 1 4.37 2.86c1.91-.626 3.836-1.206 5.774-1.74Z"/><path fill="url(#b)" d="M21.708 10.292a.999.999 0 0 1 0 1.416l-6 6a1.001 1.001 0 0 1-1.416 0l-3-3a1.003 1.003 0 0 1 .708-1.71 1.002 1.002 0 0 1 .708.294L15 15.586l5.292-5.294a.999.999 0 0 1 1.416 0Z"/><defs><linearGradient id="a" x1="14.581" x2="15.844" y1="0" y2="28.518" gradientUnits="userSpaceOnUse"><stop stop-color="#ED5233"/><stop offset="1" stop-color="#BE3014"/></linearGradient><linearGradient id="b" x1="15.943" x2="16.144" y1="9.998" y2="17.139" gradientUnits="userSpaceOnUse"><stop stop-color="#ED5233"/><stop offset="1" stop-color="#BE3014"/></linearGradient></defs></svg>