<svg width="177" height="27" viewBox="0 0 177 27" fill="none" xmlns="http://www.w3.org/2000/svg">
<rect y="2" width="22" height="25" fill="#FDFDFD"/>
<path d="M30.504 23.144C28.36 23.144 26.672 22.528 25.44 21.296C24.208 20.064 23.592 18.24 23.592 15.824V6.2H25.368V15.752C25.368 17.736 25.816 19.2 26.712 20.144C27.608 21.088 28.872 21.56 30.504 21.56C32.152 21.56 33.424 21.088 34.32 20.144C35.216 19.2 35.664 17.736 35.664 15.752V6.2H37.392V15.824C37.392 18.24 36.776 20.064 35.544 21.296C34.328 22.528 32.648 23.144 30.504 23.144ZM42.7438 23V6.2H44.5198V23H42.7438ZM53.25 23V7.736H47.346V6.2H60.93V7.736H55.026V23H53.25ZM60.2355 23L67.9155 6.2H69.6675L77.3475 23H75.4755L68.4195 7.232H69.1395L62.0835 23H60.2355ZM63.2595 18.512L63.7875 17.072H73.5555L74.0835 18.512H63.2595ZM80.1266 23V6.2H86.4146C87.8386 6.2 89.0626 6.432 90.0866 6.896C91.1106 7.344 91.8946 8 92.4386 8.864C92.9986 9.712 93.2786 10.744 93.2786 11.96C93.2786 13.144 92.9986 14.168 92.4386 15.032C91.8946 15.88 91.1106 16.536 90.0866 17C89.0626 17.448 87.8386 17.672 86.4146 17.672H81.1106L81.9026 16.856V23H80.1266ZM91.5986 23L87.2786 16.904H89.1986L93.5426 23H91.5986ZM81.9026 17L81.1106 16.16H86.3666C88.0466 16.16 89.3186 15.792 90.1826 15.056C91.0626 14.32 91.5026 13.288 91.5026 11.96C91.5026 10.616 91.0626 9.576 90.1826 8.84C89.3186 8.104 88.0466 7.736 86.3666 7.736H81.1106L81.9026 6.896V17ZM97.4704 23V6.2H103.758C105.182 6.2 106.406 6.432 107.43 6.896C108.454 7.344 109.238 8 109.782 8.864C110.342 9.712 110.622 10.744 110.622 11.96C110.622 13.144 110.342 14.168 109.782 15.032C109.238 15.88 108.454 16.536 107.43 17C106.406 17.464 105.182 17.696 103.758 17.696H98.4544L99.2464 16.856V23H97.4704ZM99.2464 17L98.4544 16.136H103.71C105.39 16.136 106.662 15.776 107.526 15.056C108.406 14.32 108.846 13.288 108.846 11.96C108.846 10.616 108.406 9.576 107.526 8.84C106.662 8.104 105.39 7.736 103.71 7.736H98.4544L99.2464 6.896V17ZM114.463 23V6.2H116.239V21.464H125.647V23H114.463ZM125.907 23L133.587 6.2H135.339L143.019 23H141.147L134.091 7.232H134.811L127.755 23H125.907ZM128.931 18.512L129.459 17.072H139.227L139.755 18.512H128.931ZM152.86 23.144C151.596 23.144 150.428 22.936 149.356 22.52C148.284 22.088 147.356 21.488 146.572 20.72C145.788 19.952 145.172 19.048 144.724 18.008C144.292 16.968 144.076 15.832 144.076 14.6C144.076 13.368 144.292 12.232 144.724 11.192C145.172 10.152 145.788 9.248 146.572 8.48C147.372 7.712 148.308 7.12 149.38 6.704C150.452 6.272 151.62 6.056 152.884 6.056C154.1 6.056 155.244 6.264 156.316 6.68C157.388 7.08 158.292 7.688 159.028 8.504L157.9 9.632C157.212 8.928 156.452 8.424 155.62 8.12C154.788 7.8 153.892 7.64 152.932 7.64C151.924 7.64 150.988 7.816 150.124 8.168C149.26 8.504 148.508 8.992 147.868 9.632C147.228 10.256 146.724 10.992 146.356 11.84C146.004 12.672 145.828 13.592 145.828 14.6C145.828 15.608 146.004 16.536 146.356 17.384C146.724 18.216 147.228 18.952 147.868 19.592C148.508 20.216 149.26 20.704 150.124 21.056C150.988 21.392 151.924 21.56 152.932 21.56C153.892 21.56 154.788 21.4 155.62 21.08C156.452 20.76 157.212 20.248 157.9 19.544L159.028 20.672C158.292 21.488 157.388 22.104 156.316 22.52C155.244 22.936 154.092 23.144 152.86 23.144ZM164.398 13.712H173.278V15.224H164.398V13.712ZM164.59 21.464H174.694V23H162.814V6.2H174.334V7.736H164.59V21.464Z" fill="#FDFDFD"/>
<path d="M17.568 14.6H19.272V23H17.712V21.584C17.072 22.096 16.32 22.488 15.456 22.76C14.608 23.016 13.696 23.144 12.72 23.144C11.216 23.144 9.816 22.808 8.52 22.136C7.24 21.464 6.208 20.488 5.424 19.208C4.64 17.928 4.248 16.408 4.248 14.648C4.248 13.016 4.632 11.552 5.4 10.256C6.168 8.944 7.224 7.92 8.568 7.184C9.912 6.432 11.432 6.056 13.128 6.056C14.408 6.056 15.584 6.264 16.656 6.68C17.728 7.08 18.632 7.68 19.368 8.48L18.264 9.608C16.936 8.296 15.248 7.64 13.2 7.64C11.84 7.64 10.608 7.944 9.504 8.552C8.416 9.144 7.56 9.976 6.936 11.048C6.312 12.12 6 13.32 6 14.648C6 16.072 6.312 17.312 6.936 18.368C7.576 19.408 8.416 20.208 9.456 20.768C10.512 21.312 11.64 21.584 12.84 21.584C13.72 21.584 14.568 21.44 15.384 21.152C16.216 20.848 16.944 20.392 17.568 19.784V14.6Z" fill="black"/>
<line x1="22" y1="2.5" x2="176" y2="2.5" stroke="#FDFDFD"/>
<line x1="22" y1="26.5" x2="176" y2="26.5" stroke="#FDFDFD"/>
<line x1="176.5" y1="2" x2="176.5" y2="27" stroke="#FDFDFD"/>
</svg>
